<?xml version="1.0" standalone="no"?>
<!DOCTYPE svg PUBLIC "-//W3C//DTD SVG 20010904//EN"
 "http://www.w3.org/TR/2001/REC-SVG-20010904/DTD/svg10.dtd">
<svg version="1.0" xmlns="http://www.w3.org/2000/svg"
 width="60.000000pt" height="60.000000pt" viewBox="0 0 60.000000 60.000000"
 preserveAspectRatio="xMidYMid meet">

<g transform="translate(0.000000,60.000000) scale(0.100000,-0.100000)"
fill="#000000" stroke="none">
<path d="M210 594 c-159 -31 -205 -100 -204 -309 0 -225 58 -279 294 -279 135
0 205 18 244 65 81 96 68 391 -21 471 -33 30 -105 49 -198 53 -49 2 -101 1
-115 -1z m169 -149 c47 -24 57 -89 19 -125 -12 -11 -16 -20 -10 -20 23 0 52
-40 52 -71 0 -20 -10 -40 -29 -60 -29 -28 -32 -29 -130 -29 l-101 0 0 160 0
160 85 0 c56 0 96 -5 114 -15z"/>
<path d="M260 364 c0 -34 1 -35 36 -32 47 4 68 32 40 54 -11 8 -32 14 -48 14
-25 0 -28 -3 -28 -36z"/>
<path d="M260 236 c0 -35 1 -36 38 -36 48 0 65 12 60 41 -3 21 -9 24 -50 27
l-48 3 0 -35z"/>
</g>
</svg>
